<?xml version="1.0" standalone="no"?>
<!DOCTYPE svg PUBLIC "-//W3C//DTD SVG 20010904//EN"
 "http://www.w3.org/TR/2001/REC-SVG-20010904/DTD/svg10.dtd">
<svg version="1.0" xmlns="http://www.w3.org/2000/svg"
 width="150.000000pt" height="150.000000pt" viewBox="0 0 150.000000 150.000000"
 preserveAspectRatio="xMidYMid meet">
<metadata>
Created by potrace 1.11, written by Peter Selinger 2001-2013
</metadata>
<g transform="translate(0.000000,150.000000) scale(0.100000,-0.100000)"
fill="#000000" stroke="none">
<path d="M0 750 l0 -750 750 0 750 0 0 750 0 750 -750 0 -750 0 0 -750z m568
63 c-3 -262 -4 -269 -26 -301 -39 -55 -74 -67 -187 -67 -137 0 -135 -2 -135
91 l0 76 25 -6 c14 -3 35 -9 48 -12 15 -3 32 2 48 14 24 20 24 20 27 246 l3
226 100 0 100 0 -3 -267z m558 241 c47 -35 67 -70 72 -127 5 -64 -14 -109 -59
-136 l-30 -18 37 -20 c78 -40 97 -148 41 -232 -40 -61 -87 -71 -324 -71 l-193
0 0 316 0 315 214 -3 c198 -3 217 -5 242 -24z"/>
<path d="M870 885 l0 -55 45 0 c32 0 51 6 65 20 44 44 12 90 -63 90 l-47 0 0
-55z"/>
<path d="M870 645 l0 -55 50 0 c37 0 55 5 70 20 44 44 8 90 -70 90 l-50 0 0
-55z"/>
</g>
</svg>
